<svg width="102" height="86" viewBox="0 0 102 86" fill="none" xmlns="http://www.w3.org/2000/svg">
<path d="M88 5H54L57 39L71 43L85 39L88 5Z" fill="#0277BD"/>
<path d="M71 8V39.9L82.2 36.7L84.7 8H71Z" fill="#039BE5"/>
<path d="M80.1 13H71V17H75.9L75.6 21H71V25H75.4L75.1 29.5L71 30.9V35.1L78.9 32.5L79.6 21L80.1 13Z" fill="white"/>
<path d="M71 13V17H62.1L61.8 13H71ZM66.4 21L66.6 25H71V21H66.4ZM66.8 27H62.8L63.1 32.5L71 35.1V30.9L66.9 29.5L66.8 27Z" fill="#EEEEEE"/>
<path d="M48 5H14L17 39L31 43L45 39L48 5Z" fill="#E65100"/>
<path d="M31 8V39.9L42.2 36.7L44.7 8H31Z" fill="#FF6D00"/>
<path d="M31 25V21H39.6L38.9 32.5L31 35.1V30.9L35.1 29.5L35.4 25H31V25ZM39.9 17L40.2 13H31V17H39.9Z" fill="white"/>
<path d="M31 30.9V35.1L23.1 32.5L22.7 27H26.7L26.9 29.5L31 30.9ZM26.1 17H31V13H21.9L22.6 25H31V21H26.4L26.1 17Z" fill="#EEEEEE"/>
<path d="M69 48H35L38 82L52 86L66 82L69 48Z" fill="#FFD600"/>
<path d="M52 51V82.9L63.2 79.7L65.7 51H52Z" fill="#FFEB80"/>
<path d="M55.205 69.947C55.897 71.071 56.649 72.148 58.242 72.148C59.58 72.148 60.282 71.483 60.282 70.563C60.282 69.462 59.556 69.071 58.084 68.43L57.277 68.086C54.948 67.098 53.399 65.86 53.399 63.245C53.399 60.835 55.244 59.001 58.127 59.001C60.18 59.001 61.655 59.712 62.719 61.574L60.205 63.181C59.652 62.193 59.054 61.804 58.127 61.804C57.181 61.804 56.582 62.401 56.582 63.181C56.582 64.145 57.182 64.535 58.567 65.132L59.374 65.476C62.119 66.645 63.667 67.839 63.667 70.523C63.667 73.415 61.383 75 58.317 75C55.318 75 53.615 73.495 52.667 71.632L55.205 69.947ZM43.619 70.029C44.125 70.935 44.894 71.632 46 71.632C47.058 71.632 47.667 71.214 47.667 69.589V59H51V70.101C51 73.468 49.047 75 46.195 75C43.618 75 41.758 73.254 41 71.632L43.619 70.029Z" fill="#000001"/>
</svg>
